<?xml version="1.0" standalone="no"?>
<!DOCTYPE svg PUBLIC "-//W3C//DTD SVG 20010904//EN"
 "http://www.w3.org/TR/2001/REC-SVG-20010904/DTD/svg10.dtd">
<svg version="1.0" xmlns="http://www.w3.org/2000/svg"
 width="413.000000pt" height="413.000000pt" viewBox="0 0 413.000000 413.000000"
 preserveAspectRatio="xMidYMid meet">

<g transform="translate(0.000000,413.000000) scale(0.100000,-0.100000)"
fill="#000000" stroke="none">
<path d="M1325 3170 c3 -5 1 -10 -6 -10 -10 0 -10 -3 -1 -12 8 -8 15 -8 27 2
21 17 19 30 -6 30 -11 0 -17 -4 -14 -10z"/>
<path d="M1600 3173 c0 -16 58 -43 77 -36 15 6 16 4 5 -9 -10 -13 -9 -17 5
-21 10 -4 26 -12 35 -19 9 -7 21 -9 25 -4 4 4 0 13 -10 20 -25 19 -21 25 23
32 45 7 54 23 15 26 -14 1 -37 3 -52 5 -97 13 -123 14 -123 6z"/>
<path d="M1922 3153 c-20 -8 6 -33 35 -33 18 0 24 5 21 18 -3 17 -32 25 -56
15z"/>
<path d="M1400 3141 c0 -15 89 -33 108 -22 15 8 13 11 -11 20 -34 13 -97 14
-97 2z"/>
<path d="M1768 3113 c7 -3 16 -2 19 1 4 3 -2 6 -13 5 -11 0 -14 -3 -6 -6z"/>
<path d="M1985 3080 c-17 -19 -17 -20 2 -20 12 0 23 7 26 15 9 23 -9 26 -28 5z"/>
<path d="M2291 3076 c-6 -7 -36 -17 -66 -21 -58 -7 -68 -17 -34 -36 30 -16 90
-2 96 22 3 10 10 19 17 20 6 1 19 2 28 3 26 2 22 19 -5 23 -14 2 -30 -3 -36
-11z"/>
<path d="M1768 3063 c7 -3 16 -2 19 1 4 3 -2 6 -13 5 -11 0 -14 -3 -6 -6z"/>
<path d="M2095 3060 c3 -5 11 -10 16 -10 6 0 7 5 4 10 -3 6 -11 10 -16 10 -6
0 -7 -4 -4 -10z"/>
<path d="M2407 3033 c-14 -13 -6 -23 19 -23 22 0 25 2 14 15 -14 16 -23 19
-33 8z"/>
<path d="M970 2991 c-14 -5 -39 -6 -56 -3 -22 3 -43 -4 -73 -22 -67 -43 -121
-96 -120 -119 0 -12 -2 -32 -6 -44 -4 -13 -3 -23 2 -23 6 0 10 -14 11 -32 1
-32 41 -77 72 -78 8 0 24 -7 34 -15 36 -27 44 -19 43 43 -2 51 -4 57 -24 60
-13 2 -23 10 -23 18 0 8 4 13 9 9 15 -9 24 15 11 30 -13 16 -5 35 14 35 8 0
56 14 107 30 52 17 129 36 171 42 43 6 75 15 72 19 -3 5 -29 20 -58 34 -54 26
-131 32 -186 16z m-190 -201 c0 -5 -6 -10 -14 -10 -8 0 -18 5 -21 10 -3 6 3
10 14 10 12 0 21 -4 21 -10z"/>
<path d="M2500 2972 c8 -3 19 -11 23 -18 8 -14 77 -20 77 -6 -1 21 -20 30 -65
29 -28 0 -43 -2 -35 -5z"/>
<path d="M2618 2955 c-9 -10 14 -45 29 -45 7 0 13 -6 13 -13 0 -8 22 -28 49
-46 28 -17 61 -45 76 -62 27 -32 55 -34 55 -3 0 10 -3 14 -6 11 -4 -3 -16 -1
-27 5 -20 10 -20 11 4 29 13 9 22 19 19 21 -3 2 -18 14 -33 28 -22 20 -30 22
-37 11 -5 -9 -15 -11 -26 -7 -18 7 -18 8 1 22 18 13 18 15 3 30 -17 17 -108
31 -120 19z"/>
<path d="M1365 2900 c-10 -11 -14 -20 -8 -20 5 0 18 9 28 20 10 11 14 20 8 20
-5 0 -18 -9 -28 -20z"/>
<path d="M2480 2789 c-41 -11 -93 -32 -116 -47 -51 -33 -94 -111 -87 -159 7
-41 84 -123 118 -123 9 0 27 -7 40 -16 46 -30 238 -22 276 12 8 8 21 14 28 14
7 0 25 14 41 32 16 17 39 33 52 35 26 4 45 20 35 30 -4 4 -13 1 -19 -5 -23
-23 -25 -12 -7 26 18 36 18 39 1 73 -29 57 -62 99 -79 99 -8 0 -29 10 -46 22
-33 24 -79 28 -136 14 -24 -6 -32 -5 -27 3 4 6 6 11 4 10 -2 0 -37 -9 -78 -20z
m-20 -189 c10 -6 11 -10 3 -10 -7 0 -13 -7 -13 -15 0 -20 -36 -19 -44 1 -12
31 21 46 54 24z m-5 -80 c-3 -5 -10 -10 -16 -10 -5 0 -9 5 -9 10 0 6 7 10 16
10 8 0 12 -4 9 -10z"/>
<path d="M2200 2770 c0 -5 5 -10 10 -10 6 0 10 5 10 10 0 6 -4 10 -10 10 -5 0
-10 -4 -10 -10z"/>
<path d="M1413 2733 c-44 -6 -93 -53 -93 -90 0 -21 8 -32 31 -46 l31 -17 -24
-19 c-12 -11 -25 -17 -28 -15 -2 3 2 9 10 14 12 7 12 12 2 22 -18 18 -32 -1
-47 -65 -12 -50 -11 -57 4 -71 10 -9 23 -16 29 -16 7 0 12 -4 12 -10 0 -5 18
-10 41 -10 32 0 42 4 46 19 5 20 33 38 33 21 0 -6 18 -9 39 -7 23 2 37 -1 34
-6 -10 -17 90 2 117 21 21 16 25 27 25 72 1 38 5 54 18 61 25 14 22 22 -32 80
-41 44 -56 53 -97 60 -51 8 -96 9 -151 2z m97 -43 c0 -5 -4 -10 -10 -10 -5 0
-10 5 -10 10 0 6 5 10 10 10 6 0 10 -4 10 -10z m-2 -50 c12 0 10 -5 -8 -25
-23 -24 -60 -34 -60 -16 0 15 45 61 48 51 2 -6 11 -10 20 -10z m-48 -78 c0 -5
-9 -17 -20 -27 -11 -10 -19 -28 -18 -39 2 -15 -4 -22 -30 -27 -39 -8 -45 -1
-31 40 11 31 12 31 30 15 17 -16 24 -13 20 10 -2 9 29 35 42 36 4 0 7 -4 7 -8z
m94 -28 c6 -16 0 -34 -12 -34 -18 1 -32 18 -26 33 8 21 30 22 38 1z m116 -19
c0 -8 -4 -15 -10 -15 -5 0 -10 7 -10 15 0 8 5 15 10 15 6 0 10 -7 10 -15z
m-190 -24 c0 -14 -18 -23 -30 -16 -6 4 -8 11 -5 16 8 12 35 12 35 0z m120 -26
c-7 -8 -22 -15 -33 -15 -19 0 -19 1 4 23 26 25 51 18 29 -8z"/>
<path d="M2882 2694 c2 -15 13 -33 26 -42 21 -14 22 -13 22 17 0 19 -4 30 -10
26 -6 -3 -13 1 -16 9 -10 26 -26 18 -22 -10z"/>
<path d="M2967 2643 c7 -18 22 -33 36 -33 14 0 7 38 -9 44 -26 10 -34 7 -27
-11z"/>
<path d="M2885 2629 c-11 -17 1 -21 15 -4 8 9 8 15 2 15 -6 0 -14 -5 -17 -11z"/>
<path d="M2995 2591 c-3 -5 -1 -12 5 -16 12 -7 30 2 30 16 0 12 -27 12 -35 0z"/>
<path d="M2895 2580 c-3 -5 1 -10 9 -10 9 0 16 5 16 10 0 6 -4 10 -9 10 -6 0
-13 -4 -16 -10z"/>
<path d="M3010 2515 c-15 -18 -15 -18 27 -34 55 -22 74 7 21 33 -38 19 -33 19
-48 1z"/>
<path d="M1959 2504 c-13 -7 -38 -13 -55 -14 -37 0 -133 -47 -142 -69 -3 -9
-14 -22 -24 -29 -9 -7 -23 -30 -29 -52 -10 -33 -9 -45 5 -74 23 -50 74 -85
137 -96 30 -5 72 -16 94 -24 88 -33 181 -14 238 48 21 22 49 52 62 66 21 21
25 36 25 80 0 45 -5 61 -28 87 -51 59 -228 107 -283 77z m12 -91 c-15 -10 -26
-11 -38 -4 -19 10 -19 10 27 24 26 7 32 -4 11 -20z m-47 -36 c17 -12 17 -14 3
-20 -11 -4 -21 1 -27 13 -12 23 -2 26 24 7z m166 -7 c0 -5 -9 -10 -21 -10 -11
0 -17 5 -14 10 3 6 13 10 21 10 8 0 14 -4 14 -10z m-117 -35 c-5 -13 -23 -22
-23 -11 0 15 14 35 21 31 4 -3 6 -12 2 -20z m-103 -95 c0 -5 -4 -10 -10 -10
-5 0 -10 5 -10 10 0 6 5 10 10 10 6 0 10 -4 10 -10z"/>
<path d="M1735 2450 c3 -5 8 -10 11 -10 2 0 4 5 4 10 0 6 -5 10 -11 10 -5 0
-7 -4 -4 -10z"/>
<path d="M2815 2390 c-3 -5 1 -10 9 -10 9 0 16 5 16 10 0 6 -4 10 -9 10 -6 0
-13 -4 -16 -10z"/>
<path d="M3054 2383 c4 -12 9 -31 11 -44 5 -26 4 -25 32 -33 18 -6 20 -4 16
14 -3 11 -12 20 -20 20 -9 0 -13 6 -10 14 3 8 -4 22 -15 33 -20 18 -21 18 -14
-4z"/>
<path d="M2720 2353 c-48 -17 -138 -63 -149 -77 -7 -9 -18 -16 -23 -16 -15 0
-32 -22 -56 -70 -28 -59 -16 -96 42 -133 23 -15 58 -39 79 -54 36 -25 45 -27
132 -25 83 1 101 5 152 31 79 40 124 90 130 144 6 51 -16 121 -38 125 -9 2
-36 21 -58 43 -42 39 -42 39 -119 38 -42 0 -84 -3 -92 -6z m208 -99 c2 -1 -1
-5 -7 -8 -5 -4 -15 4 -22 16 -12 22 -11 22 7 8 10 -8 20 -15 22 -16z m73 -67
c-9 -9 -14 -8 -21 3 -7 11 -4 17 8 21 21 8 29 -8 13 -24z m-261 14 c0 -5 -7
-14 -15 -21 -12 -10 -15 -10 -15 2 0 8 3 18 7 21 9 10 23 9 23 -2z m-150 -11
c0 -5 -7 -10 -16 -10 -8 0 -12 5 -9 10 3 6 10 10 16 10 5 0 9 -4 9 -10z m370
-40 c12 -7 12 -12 -4 -29 -34 -38 -60 -23 -34 19 14 23 17 23 38 10z m-250
-40 c0 -5 -7 -10 -15 -10 -8 0 -15 5 -15 10 0 6 7 10 15 10 8 0 15 -4 15 -10z"/>
<path d="M1257 2175 c-15 -9 -25 -20 -22 -25 4 -6 1 -10 -6 -10 -6 0 -9 -8 -6
-19 3 -13 -1 -21 -13 -24 -12 -3 -19 -19 -24 -58 -4 -30 -14 -77 -23 -106 -14
-44 -14 -55 -3 -68 22 -26 80 -46 149 -50 52 -4 71 -1 97 16 18 11 62 23 98
28 56 6 72 13 100 40 47 45 69 112 51 155 -24 57 -154 144 -188 125 -9 -6 -22
-7 -27 -4 -6 4 -43 8 -83 11 -53 3 -79 0 -100 -11z m183 -19 c0 -3 -4 -8 -10
-11 -5 -3 -10 -1 -10 4 0 6 5 11 10 11 6 0 10 -2 10 -4z m4 -61 c-4 -8 -16
-15 -27 -15 -20 0 -20 0 -1 15 25 19 35 19 28 0z m101 -135 c-3 -5 -10 -10
-16 -10 -5 0 -9 5 -9 10 0 6 7 10 16 10 8 0 12 -4 9 -10z m-205 -70 c0 -5 -6
-10 -14 -10 -8 0 -18 5 -21 10 -3 6 3 10 14 10 12 0 21 -4 21 -10z"/>
<path d="M1944 2026 c-53 -28 -111 -85 -119 -118 -4 -16 -1 -38 10 -57 9 -17
13 -36 10 -41 -17 -27 103 -91 174 -92 59 -1 149 15 181 33 49 28 80 51 80 61
0 5 7 16 15 24 8 9 15 20 15 25 0 5 -7 9 -15 9 -19 0 -19 20 0 34 14 10 13 16
-4 52 -25 52 -72 75 -100 50 -24 -22 -45 -20 -78 8 -41 35 -116 40 -169 12z
m91 -20 c-32 -14 -41 -13 -30 3 3 6 18 11 33 11 l27 -1 -30 -13z m-122 -33
c-7 -3 -13 -10 -13 -16 0 -13 -39 -41 -46 -34 -3 3 9 19 27 36 17 18 34 29 38
25 3 -4 0 -9 -6 -11z m142 -13 c8 -13 -12 -40 -30 -40 -8 0 -10 9 -7 25 4 25
26 34 37 15z m75 0 c0 -5 -4 -10 -9 -10 -6 0 -13 5 -16 10 -3 6 1 10 9 10 9 0
16 -4 16 -10z m74 -16 c4 -9 2 -22 -3 -28 -5 -6 -9 -24 -10 -41 -1 -58 -2 -65
-16 -65 -15 0 -28 16 -31 38 -1 7 3 12 9 11 7 -1 19 -1 27 0 13 1 13 3 0 14
-22 18 -41 75 -26 81 23 10 44 5 50 -10z m-64 -37 c0 -7 -13 -18 -30 -24 -25
-9 -30 -9 -30 3 0 8 7 14 15 14 8 0 15 5 15 10 0 6 7 10 15 10 8 0 15 -6 15
-13z m-72 -63 c-10 -10 -23 -14 -37 -9 -30 9 -16 25 22 25 29 0 30 -1 15 -16z
m-53 -24 c3 -5 2 -10 -4 -10 -5 0 -13 5 -16 10 -3 6 -2 10 4 10 5 0 13 -4 16
-10z m-35 -34 c0 -3 -4 -8 -10 -11 -5 -3 -10 -1 -10 4 0 6 5 11 10 11 6 0 10
-2 10 -4z"/>
<path d="M3085 1979 c-10 -15 3 -25 16 -12 7 7 7 13 1 17 -6 3 -14 1 -17 -5z"/>
<path d="M3091 1934 c0 -11 3 -14 6 -6 3 7 2 16 -1 19 -3 4 -6 -2 -5 -13z"/>
<path d="M2521 1854 c-42 -11 -68 -28 -120 -76 -74 -68 -93 -100 -85 -142 7
-32 41 -76 61 -76 7 0 13 -8 14 -17 0 -23 55 -67 73 -60 8 3 17 -1 20 -9 7
-19 113 -10 199 16 47 15 57 15 57 4 0 -8 6 -14 14 -14 9 0 17 16 21 41 6 33
13 43 35 51 38 13 74 88 66 137 -5 35 -69 111 -92 111 -7 0 -29 9 -48 21 -44
26 -143 32 -215 13z m72 -24 c-3 -11 -11 -20 -17 -20 -22 0 -26 13 -8 26 24
19 31 17 25 -6z m-73 -28 c0 -5 -16 -16 -35 -25 -35 -17 -47 -10 -20 13 8 6
19 9 25 5 5 -3 10 -1 10 4 0 6 5 11 10 11 6 0 10 -4 10 -8z m245 -22 c3 -5 1
-10 -4 -10 -6 0 -11 5 -11 10 0 6 2 10 4 10 3 0 8 -4 11 -10z m-345 -45 c-7
-9 -15 -13 -19 -10 -3 3 1 10 9 15 21 14 24 12 10 -5z m68 -67 c-3 -7 -13 -15
-24 -17 -16 -3 -17 -1 -5 13 16 19 34 21 29 4z m247 -8 c-3 -5 -11 -10 -16
-10 -6 0 -7 5 -4 10 3 6 11 10 16 10 6 0 7 -4 4 -10z m-245 -45 c0 -8 -4 -15
-9 -15 -13 0 -22 16 -14 24 11 11 23 6 23 -9z m158 -17 c-3 -7 -13 -15 -24
-17 -16 -3 -17 -1 -5 13 16 19 34 21 29 4z"/>
<path d="M1488 1715 c-3 -3 -23 -7 -44 -9 -55 -6 -95 -26 -92 -46 3 -17 -54
-90 -71 -90 -13 0 -21 -26 -21 -65 0 -24 8 -42 26 -58 17 -16 22 -27 15 -31
-6 -4 -11 -12 -11 -17 0 -6 4 -7 10 -4 14 9 91 -14 123 -37 26 -18 39 -20 112
-15 107 8 187 43 231 101 54 72 56 112 4 143 -23 13 -27 20 -19 34 13 25 -25
52 -108 79 -61 20 -68 20 -79 6 -14 -20 -28 -21 -20 -1 4 11 -2 15 -23 15 -15
0 -30 -2 -33 -5z m36 -49 c12 5 41 -44 32 -54 -3 -2 -13 -1 -23 3 -10 4 -28 7
-40 6 -25 -3 -29 10 -12 41 7 14 14 17 21 10 6 -6 16 -8 22 -6z m46 -74 c0 -5
-11 -19 -25 -32 -17 -16 -22 -27 -16 -39 6 -10 4 -19 -7 -27 -10 -7 -14 -15
-10 -19 4 -4 19 5 33 19 43 43 72 33 48 -16 -15 -29 -18 -30 -62 -24 -25 4
-54 8 -63 9 -10 1 -18 7 -18 14 0 7 5 12 11 11 6 -2 19 11 28 29 29 53 81 101
81 75z m155 -2 c3 -5 -3 -10 -15 -10 -12 0 -18 5 -15 10 3 6 10 10 15 10 5 0
12 -4 15 -10z m-251 -61 c-12 -13 -21 -16 -28 -9 -7 7 -4 14 9 24 27 19 40 8
19 -15z m298 -11 c-6 -6 -15 -8 -19 -4 -4 4 -1 11 7 16 19 12 27 3 12 -12z
m-435 -19 c-9 -6 -17 -19 -17 -29 0 -11 -4 -20 -10 -20 -20 0 -10 45 13 56 27
12 39 6 14 -7z m70 -15 c-3 -3 -12 -4 -19 -1 -8 3 -5 6 6 6 11 1 17 -2 13 -5z
m73 -38 c0 -3 -4 -8 -10 -11 -5 -3 -10 -1 -10 4 0 6 5 11 10 11 6 0 10 -2 10
-4z"/>
<path d="M1315 1640 c-3 -5 -1 -10 4 -10 6 0 11 5 11 10 0 6 -2 10 -4 10 -3 0
-8 -4 -11 -10z"/>
<path d="M2871 1537 c-19 -12 -42 -27 -51 -32 -9 -6 -15 -15 -13 -22 2 -6 -3
-27 -11 -47 -14 -33 -14 -36 3 -36 10 0 34 19 55 41 73 82 84 140 17 96z"/>
<path d="M2030 1440 c-8 -5 -32 -18 -53 -31 -29 -16 -36 -24 -25 -31 9 -7 7
-8 -8 -4 -26 8 -49 -16 -69 -74 -15 -42 -13 -88 4 -100 3 -3 15 -18 24 -33 13
-21 25 -27 43 -25 18 2 28 -4 37 -22 14 -27 59 -38 172 -42 61 -1 144 22 176
49 24 20 31 16 27 -19 -3 -32 -5 -33 -65 -43 -77 -13 -87 -21 -26 -24 26 -1
50 -6 53 -11 8 -13 69 5 97 29 21 18 30 81 11 81 -12 0 -10 34 2 46 6 6 11 31
12 55 1 24 5 49 10 55 8 11 -11 37 -73 99 -39 39 -106 55 -224 54 -60 0 -117
-4 -125 -9z m110 -14 c0 -3 -4 -8 -10 -11 -5 -3 -10 -1 -10 4 0 6 5 11 10 11
6 0 10 -2 10 -4z m-55 -17 c4 -6 5 -12 2 -15 -7 -7 -37 7 -37 17 0 13 27 11
35 -2z m225 2 c0 -9 -24 -21 -41 -21 -5 0 -9 7 -9 15 0 9 9 15 25 15 14 0 25
-4 25 -9z m-226 -82 c-13 -15 -25 -18 -51 -13 -21 4 -33 2 -33 -5 0 -10 33
-16 74 -11 40 4 7 -25 -40 -36 -47 -10 -50 -9 -72 17 l-23 28 22 25 c16 18 29
24 45 20 12 -3 31 -1 41 4 11 7 24 7 36 0 18 -9 18 -10 1 -29z m246 -83 c0 -3
-4 -8 -10 -11 -5 -3 -10 -1 -10 4 0 6 5 11 10 11 6 0 10 -2 10 -4z m-40 -36
c0 -5 -4 -10 -10 -10 -5 0 -10 5 -10 10 0 6 5 10 10 10 6 0 10 -4 10 -10z
m-300 -14 c0 -8 -4 -17 -9 -21 -12 -7 -24 12 -16 25 9 15 25 12 25 -4z m191
-51 c0 -13 -41 -19 -41 -7 0 11 20 22 33 18 5 -1 8 -6 8 -11z m-61 -25 c0 -5
-4 -10 -10 -10 -5 0 -10 5 -10 10 0 6 5 10 10 10 6 0 10 -4 10 -10z"/>
<path d="M2686 1441 c-4 -7 -5 -15 -2 -18 9 -9 19 4 14 18 -4 11 -6 11 -12 0z"/>
<path d="M2580 1340 c-12 -8 -11 -10 8 -10 12 0 22 5 22 10 0 13 -11 13 -30 0z"/>
<path d="M2235 1010 c-8 -13 20 -24 42 -16 15 6 15 8 3 16 -20 13 -37 12 -45
0z"/>
<path d="M2146 985 c-3 -9 -18 -15 -35 -15 -19 0 -34 -8 -45 -25 -21 -31 -20
-39 2 -30 9 4 24 9 32 10 28 4 50 17 44 26 -3 5 5 8 17 6 28 -3 36 19 11 32
-15 8 -21 7 -26 -4z"/>
</g>
</svg>
